<svg xmlns="http://www.w3.org/2000/svg" data-name="Layer 1" viewBox="0 0 100 125" x="0px" y="0px"><title>Artboard 3</title><path d="M22,26h3.07L36.19,61.2A4,4,0,0,0,40,64H70a4,4,0,0,0,3.82-2.82l8-26A4,4,0,0,0,78,30H34.72l-2.91-9.2A4,4,0,0,0,28,18H22a4,4,0,0,0,0,8ZM72.58,38,67,56H42.93L37.25,38ZM44,82a6,6,0,1,1,6-6A6,6,0,0,1,44,82Zm16-6a6,6,0,1,1,6,6A6,6,0,0,1,60,76Z"/><text x="0" y="115" fill="#000000" font-size="5px" font-weight="bold" font-family="'Helvetica Neue', Helvetica, Arial-Unicode, Arial, Sans-serif">Created by Gregor Cresnar</text><text x="0" y="120" fill="#000000" font-size="5px" font-weight="bold" font-family="'Helvetica Neue', Helvetica, Arial-Unicode, Arial, Sans-serif">from the Noun Project</text></svg>